# xmcd
#
# Track frame offsets: 
#        150
#        8536
#        13799
#        53367
#        67920
#        99526
#        115259
#        129895
#        133591
#        144724
#        162112
#        177913
#        191393
#        218906
#        226442
#        232814
#        244773
#
# Disc length: 3461 seconds
#
# Revision: 0
# Processed by: cddbd v1.5.2PL0 Copyright (c) Steve Scherf et al.
# Submitted via: ExactAudioCopy v1.0b3
#
DISCID=d40d8311
DTITLE=Forum für Jagdmusik - Jübiläumskonzert
DYEAR=2011
DGENRE=Parforcehorn
TTITLE0=Avantgarde
TTITLE1=Le Clocher de Dampierre
TTITLE2=Präludium in Es-Dur
TTITLE3=Le Grand Retour de Chasse
TTITLE4=Le Bouquet des Fleurs
TTITLE5=Orgelsonate Op. 65 Nr. 4, 1. Satz
TTITLE6=4 Venerie-Fanfaren
TTITLE7=Kleiner Trio-Marsch
TTITLE8=Sankt-Antonius Choral
TTITLE9=Le Souvenir de Chateau Auguste
TTITLE10=Marche and Bourree - Suite in D
TTITLE11=Les Echos de la Dent-de Oche
TTITLE12=Toccata
TTITLE13=Le Chant Final
TTITLE14=La Marche de Dampleux
TTITLE15=La Guillaume Tell
TTITLE16=Bayerische Jagd
EXTD=
EXTT0=
EXTT1=
EXTT2=
EXTT3=
EXTT4=
EXTT5=
EXTT6=
EXTT7=
EXTT8=
EXTT9=
EXTT10=
EXTT11=
EXTT12=
EXTT13=
EXTT14=
EXTT15=
EXTT16=
PLAYORDER=
